<svg version="1.1" viewBox="0.0 0.0 960.0 720.0" fill="none" stroke="none" stroke-linecap="square" stroke-miterlimit="10" xmlns:xlink="http://www.w3.org/1999/xlink" xmlns="http://www.w3.org/2000/svg"><clipPath id="p.0"><path d="m0 0l960.0 0l0 720.0l-960.0 0l0 -720.0z" clip-rule="nonzero"/></clipPath><g clip-path="url(#p.0)"><path fill="#000000" fill-opacity="0.0" d="m0 0l960.0 0l0 720.0l-960.0 0z" fill-rule="evenodd"/><path fill="#ffffff" d="m153.16536 360.0l141.5551 -283.1101l370.55908 0l141.55511 283.1101l-141.55511 283.1101l-370.55908 0z" fill-rule="evenodd"/><path stroke="#000000" stroke-width="12.0" stroke-linejoin="round" stroke-linecap="butt" d="m153.16536 360.0l141.5551 -283.1101l370.55908 0l141.55511 283.1101l-141.55511 283.1101l-370.55908 0z" fill-rule="evenodd"/><path fill="#000000" fill-opacity="0.0" d="m324.24933 174.89218l381.38586 0l0 314.29922l-381.38586 0z" fill-rule="evenodd"/><path fill="#3c78d8" d="m339.9212 439.89218l0 -9.59375l21.328125 -3.734375q0.265625 -10.671875 0.390625 -21.46875q0.140625 -10.796875 0.140625 -21.203125l0 -117.0625l-21.859375 -2.65625l0 -9.34375l41.59375 -12.0l3.734375 2.140625l-1.0625 37.859375l0 93.0625l45.59375 -47.46875l-19.734375 -4.796875l0 -10.390625l62.125 0l0 10.390625l-25.0625 3.734375l-29.328125 30.140625l43.734375 69.59375l17.59375 3.203125l0 9.59375l-36.265625 0l-41.0625 -66.125l-17.59375 18.125q0 8.53125 0.125 17.34375q0.140625 8.796875 0.40625 17.328125l21.328125 3.734375l0 9.59375l-66.125 0zm147.18906 0l0 -9.59375l20.0 -3.734375q0.265625 -10.140625 0.390625 -22.0q0.140625 -11.875 0.140625 -20.671875l0 -117.0625l-21.859375 -2.65625l0 -9.34375l40.796844 -12.0l3.734375 2.140625l-1.078125 37.859375l0 51.46875q9.875 -10.9375 22.9375 -17.734375q13.0625 -6.796875 25.859375 -6.796875q17.34375 0 25.734375 11.609375q8.40625 11.59375 8.40625 37.71875l0 24.796875q0 9.0625 0.125 20.796875q0.140625 11.734375 0.40625 21.875l18.671875 3.734375l0 9.59375l-61.875 0l0 -9.59375l19.46875 -3.46875q0.265625 -10.140625 0.390625 -22.0q0.140625 -11.875 0.140625 -20.9375l0 -22.65625q0 -18.40625 -5.0625 -25.328125q-5.0625 -6.9375 -16.796875 -6.9375q-9.875 0 -18.671875 4.0q-8.796875 4.0 -18.921875 13.328125l0 37.59375q0 8.796875 0.125 20.671875q0.140625 11.859375 0.40625 22.0l18.390625 3.734375l0 9.59375l-61.859344 0z" fill-rule="nonzero"/></g></svg>